#!OML:ASF F:\VICON\USERDATA\INSTALL\rory3\rory3.ASF
:FULLY-SPECIFIED
:DEGREES
3689
root 0.911754 18.0662 -6.98878 -259.806 258.477 -88.0746
lowerback 8.26309 -1.26495 1.38317
upperback 2.62168 -1.64098 6.36557
thorax -1.75949 -0.928157 6.02222
lowerneck -15.4365 11.0168 -2.99514
upperneck 35.4083 15.4964 2.38649
head 14.2328 6.36749 3.88539
rclavicle -2.70347e-014 -1.59028e-014
rhumerus -27.8035 -4.60397 -62.5753
rradius 61.2938
rwrist 16.2843
rhand -20.8273 3.21039
rfingers 7.12502
rthumb 5.54112 -26.6972
lclavicle -2.70347e-014 -1.59028e-014
lhumerus 13.6232 -7.87095 54.8291
lradius 81.1861
lwrist 18.4875
lhand -13.4767 12.1161
lfingers 7.12502
lthumb 12.6337 1121.71
rfemur -27.9765 4.48308 7.78355
rtibia 36.8601
rfoot -20.553 -8.68704
rtoes 10.542
lfemur -15.7735 0.54044 -19.3256
ltibia 18.939
lfoot 9.23043 18.0604
ltoes -30.2901
3690
root 0.912089 18.07 -6.95917 -261.15 258.734 -86.5196
lowerback 8.06702 -1.28446 1.72205
upperback 2.61377 -1.65674 6.51716
thorax -1.66174 -0.941008 5.98441
lowerneck -15.507 10.6427 -3.3902
upperneck 35.8698 15.0118 2.5019
head 14.4262 6.07781 3.94884
rclavicle 9.54166e-015 -5.40694e-014
rhumerus -27.9432 -4.21727 -62.4811
rradius 61.435
rwrist 16.1755
rhand -20.9217 3.20825
rfingers 7.12502
rthumb 5.44995 -26.7017
lclavicle 9.54166e-015 -5.40694e-014
lhumerus 11.664 -7.19426 56.0081
lradius 80.6788
lwrist 18.8771
lhand -14.4198 12.3564
lfingers 7.12502
lthumb 11.7243 1122.01
rfemur -28.2296 4.60903 7.93698
rtibia 36.7561
rfoot -20.3361 -8.64942
rtoes 10.1907
lfemur -16.2299 0.564335 -19.095
ltibia 19.5592
lfoot 8.94786 18.3146
ltoes -30.3361
3691
root 0.924043 18.0686 -6.93296 -261.686 258.841 -85.466
lowerback 7.75653 -1.3294 1.93291
upperback 2.49091 -1.71045 6.64106
thorax -1.614 -0.968289 5.99204
lowerneck -15.708 10.2801 -3.72595
upperneck 36.3966 14.5489 2.58716
head 14.6943 5.79217 4.01091
rclavicle -1.43125e-014 4.77083e-014
rhumerus -27.9998 -3.99226 -62.3694
rradius 61.4721
rwrist 16.0812
rhand -20.7591 3.3578
rfingers 7.12502
rthumb 5.60692 -26.548
lclavicle -1.43125e-014 4.77083e-014
lhumerus 9.67448 -6.67463 57.0408
lradius 80.7359
lwrist 20.225
lhand -15.8216 14.0006
lfingers 7.12502
lthumb 10.3722 1123.72
rfemur -28.8807 4.65026 7.92254
rtibia 36.6732
rfoot -20.0796 -8.7454
rtoes 9.8649
lfemur -17.162 0.853595 -19.0451
ltibia 20.2228
lfoot 9.24755 17.7532
ltoes -31.3776
3692
root 0.929528 18.0683 -6.91462 -262.071 258.799 -84.8447
lowerback 7.60296 -1.3819 1.99892
upperback 2.42643 -1.77751 6.61542
thorax -1.5926 -0.999784 5.92818
lowerneck -15.6471 9.92485 -3.64667
upperneck 36.7517 14.0261 2.42457
head 14.8996 5.51414 3.87394
rclavicle 2.8625e-014 -1.59028e-014
rhumerus -28.2503 -3.93099 -62.3306
rradius 61.5159
rwrist 15.918
rhand -20.4844 3.57901
rfingers 7.12502
rthumb 5.87211 -26.3196
lclavicle 2.8625e-014 -1.59028e-014
lhumerus 7.82889 -6.02496 57.856
lradius 80.2732
lwrist 21.0588
lhand -16.35 14.3255
lfingers 7.12502
lthumb 9.86245 1124.07
rfemur -29.1627 4.7743 7.78452
rtibia 36.6139
rfoot -20.0306 -8.94183
rtoes 9.26673
lfemur -17.7805 1.29965 -19.1789
ltibia 20.8752
lfoot 9.78301 16.4742
ltoes -33.3659
3693
root 0.924867 18.072 -6.89851 -262.815 258.739 -84.1886
lowerback 7.55518 -1.42036 2.02813
upperback 2.49822 -1.83458 6.53133
thorax -1.49035 -1.02876 5.82269
lowerneck -15.5042 9.53151 -3.50587
upperneck 37.011 13.4138 2.26101
head 15.0502 5.21556 3.69833
rclavicle -1.59028e-014 2.22639e-014
rhumerus -28.5446 -4.10297 -62.3469
rradius 61.5477
rwrist 15.941
rhand -20.1891 3.82001
rfingers 7.12502
rthumb 6.15727 -26.0705
lclavicle -1.59028e-014 2.22639e-014
lhumerus 6.06709 -5.24427 58.5205
lradius 79.628
lwrist 21.647
lhand -16.1548 13.5732
lfingers 7.12502
lthumb 10.0509 1123.31
rfemur -29.0241 5.03224 7.62397
rtibia 36.5583
rfoot -20.1279 -9.03705
rtoes 9.30587
lfemur -17.948 1.58395 -19.3015
ltibia 21.4836
lfoot 9.91455 15.6732
ltoes -34.4387
3694
root 0.919546 18.0753 -6.87995 -263.892 258.762 -83.1676
lowerback 7.41647 -1.4397 2.13002
upperback 2.61137 -1.87274 6.49953
thorax -1.29675 -1.05097 5.72527
lowerneck -15.4672 9.11869 -3.47525
upperneck 37.3767 12.8308 2.05408
head 15.2704 4.89876 3.53723
rclavicle 2.38542e-014 6.67916e-014
rhumerus -28.7194 -4.09993 -62.3776
rradius 61.4509
rwrist 15.8782
rhand -20.1065 3.77635
rfingers 7.12502
rthumb 6.23695 -26.1118
lclavicle 2.38542e-014 6.67916e-014
lhumerus 4.29901 -4.26017 59.1508
lradius 78.8962
lwrist 22.2171
lhand -14.8397 11.2506
lfingers 7.12502
lthumb 11.3193 1120.93
rfemur -28.9319 5.25555 7.54238
rtibia 36.4846
rfoot -20.0746 -8.95666
rtoes 9.57886
lfemur -18.0453 1.80437 -19.3279
ltibia 21.9265
lfoot 9.93772 15.2671
ltoes -34.8096
3695
root 0.91588 18.0798 -6.8608 -265.031 258.746 -82.0678
lowerback 7.30922 -1.43316 2.16679
upperback 2.68686 -1.87685 6.51629
thorax -1.1589 -1.05608 5.71632
lowerneck -15.3067 8.70891 -3.67114
upperneck 37.651 12.2579 1.9851
head 15.3831 4.58769 3.45152
rclavicle -1.27222e-014 -3.81667e-014
rhumerus -28.9342 -3.88819 -62.287
rradius 61.2723
rwrist 15.7658
rhand -20.384 3.59714
rfingers 7.12502
rthumb 5.96907 -26.2988
lclavicle -1.27222e-014 -3.81667e-014
lhumerus 2.51044 -3.04538 59.9373
lradius 78.0377
lwrist 22.5501
lhand -15.7127 13.2806
lfingers 7.12502
lthumb 10.4773 1123
rfemur -28.8788 5.48024 7.40128
rtibia 36.3749
rfoot -20.0028 -8.89229
rtoes 9.93207
lfemur -18.1306 2.00574 -19.4064
ltibia 22.2308
lfoot 10.0583 15.0744
ltoes -34.9402
3696
root 0.902093 18.0852 -6.83896 -266.747 258.496 -80.5855
lowerback 7.28141 -1.41747 1.92514
upperback 2.82637 -1.88544 6.46062
thorax -0.992475 -1.06406 5.79103
lowerneck -15.1598 8.364 -3.95442
upperneck 37.9183 11.7282 2.12798
head 15.4657 4.31703 3.47301
rclavicle -9.54166e-015 -1.90833e-014
rhumerus -29.1803 -3.79089 -62.1923
rradius 61.0732
rwrist 15.7656
rhand -20.4792 3.44769
rfingers 7.12502
rthumb 5.87715 -26.4508
lclavicle -9.54166e-015 -1.90833e-014
lhumerus 0.663505 -1.71189 60.6358
lradius 77.2739
lwrist 23.1619
lhand -15.7749 13.9789
lfingers 7.12502
lthumb 10.4173 1123.7
rfemur -28.5611 5.59964 7.06242
rtibia 36.2432
rfoot -19.891 -8.76449
rtoes 9.64081
lfemur -17.9692 2.31067 -19.7486
ltibia 22.6278
lfoot 10.0401 14.9727
ltoes -34.8866
3697
root 0.878785 18.0924 -6.81489 -268.661 258.247 -79.1399
lowerback 7.39389 -1.4489 1.66729
upperback 3.01448 -1.95531 6.39912
thorax -0.847479 -1.10485 5.87825
lowerneck -15.029 8.05294 -4.30007
upperneck 38.2644 11.2241 2.37124
head 15.5788 4.05619 3.55571
rclavicle -6.36111e-015 3.18055e-015
rhumerus -29.4796 -3.70624 -62.1236
rradius 60.9127
rwrist 15.6085
rhand -20.2319 3.44707
rfingers 7.12502
rthumb 6.11589 -26.4447
lclavicle -6.36111e-015 3.18055e-015
lhumerus -1.35999 -0.4014 61.1231
lradius 76.6373
lwrist 24.4584
lhand -16.2661 14.4339
lfingers 7.12502
lthumb 9.94342 1124.18
rfemur -27.9014 5.65468 6.78772
rtibia 36.058
rfoot -19.7495 -8.5443
rtoes 9.28905
lfemur -17.569 2.63008 -20.0783
ltibia 23.2293
lfoot 9.97886 14.4217
ltoes -35.9782
3698
root 0.87382 18.0947 -6.79779 -269.436 258.474 -78.528
lowerback 7.48136 -1.51144 1.85639
upperback 3.05406 -2.03013 6.47079
thorax -0.851382 -1.14512 5.85527
lowerneck -14.722 7.66034 -4.33879
upperneck 38.2981 10.6024 2.30621
head 15.5577 3.76723 3.41789
rclavicle -1.43125e-014 9.54166e-015
rhumerus -29.831 -3.71478 -62.0356
rradius 60.8172
rwrist 15.3775
rhand -20.0865 3.2197
rfingers 7.12502
rthumb 6.25628 -26.6679
lclavicle -1.43125e-014 9.54166e-015
lhumerus -3.23176 1.34975 61.4339
lradius 75.3895
lwrist 24.1547
lhand -14.398 13.4179
lfingers 7.12502
lthumb 11.7453 1123.07
rfemur -27.5779 5.87772 6.99624
rtibia 35.754
rfoot -19.6369 -8.62214
rtoes 9.12345
lfemur -17.6792 2.97344 -19.8681
ltibia 23.8193
lfoot 10.0929 13.7341
ltoes -37.2335
3699
root 0.885572 18.0953 -6.7869 -269.012 259.189 -78.6698
lowerback 7.3867 -1.58244 2.51611
upperback 2.90001 -2.08219 6.69303
thorax -0.967342 -1.17062 5.72022
lowerneck -14.3028 7.1605 -4.27005
upperneck 38.0439 9.8155 2.15764
head 15.3889 3.43305 3.18361
rclavicle 4.92986e-014 4.13472e-014
rhumerus -30.1745 -3.8502 -61.8883
rradius 60.5906
rwrist 15.335
rhand -20.075 3.06433
rfingers 7.12502
rthumb 6.26741 -26.823
lclavicle 4.92986e-014 4.13472e-014
lhumerus -5.11519 2.35159 61.6979
lradius 74.9409
lwrist 26.2071
lhand -15.8102 15.2168
lfingers 7.12502
lthumb 10.3832 1124.94
rfemur -27.7791 6.22451 7.66891
rtibia 35.3939
rfoot -19.5829 -9.06838
rtoes 9.36085
lfemur -18.4723 2.69558 -18.9078
ltibia 24.4237
lfoot 9.85197 14.1115
ltoes -36.0902
3700
root 0.87136 18.1183 -6.76505 -269.99 259.407 -77.7494
lowerback 7.24643 -1.58125 2.81921
upperback 2.94706 -2.07778 6.70117
thorax -0.850694 -1.16918 5.54897
lowerneck -14.099 6.69195 -4.37618
upperneck 38.0294 9.04846 2.27177
head 15.3538 3.10167 3.11535
rclavicle 3.18055e-015 -9.22361e-014
rhumerus -30.4655 -4.08111 -61.7466
rradius 60.1761
rwrist 15.3613
rhand -19.8945 3.15242
rfingers 7.12502
rthumb 6.44168 -26.7296
lclavicle 3.18055e-015 -9.22361e-014
lhumerus -6.82326 3.65692 61.8078
lradius 74.1308
lwrist 27.3275
lhand -15.8084 15.6307
lfingers 7.12502
lthumb 10.385 1125.35
rfemur -27.4889 6.6072 7.79211
rtibia 35.0037
rfoot -19.5579 -9.26928
rtoes 9.22552
lfemur -18.7979 1.36374 -18.1317
ltibia 25.223
lfoot 7.97431 16.2051
ltoes -30.0573
3701
root 0.846407 18.1341 -6.73646 -272.085 258.985 -75.9066
lowerback 7.14807 -1.53284 2.51737
upperback 3.09807 -2.04858 6.55083
thorax -0.63781 -1.15589 5.55048
lowerneck -14.1106 6.3158 -4.56301
upperneck 38.3771 8.46092 2.36202
head 15.5413 2.80438 3.10601
rclavicle -2.8625e-014 -4.45278e-014
rhumerus -30.7377 -4.0796 -61.5629
rradius 59.7759
rwrist 15.1528
rhand -19.8474 3.04354
rfingers 7.12502
rthumb 6.48711 -26.8371
lclavicle -2.8625e-014 -4.45278e-014
lhumerus -8.51233 5.08785 61.8371
lradius 73.2749
lwrist 28.4729
lhand -15.836 16.2894
lfingers 7.12502
lthumb 10.3584 1126.01
rfemur -27.0266 6.96927 7.22099
rtibia 34.7023
rfoot -19.5379 -9.12767
rtoes 9.63763
lfemur -18.6211 1.52025 -18.6104
ltibia 25.8379
lfoot 7.86941 15.9001
ltoes -30.8985
3702
root 0.862499 18.1264 -6.71771 -272.752 259.574 -75.162
lowerback 7.34227 -1.57936 3.04001
upperback 3.02109 -2.0691 6.77085
thorax -0.831713 -1.16884 5.49943
lowerneck -14.1088 5.94161 -4.76671
upperneck 38.6679 7.91224 2.36557
head 15.7054 2.51284 3.06527
rclavicle -3.02153e-014 -6.67916e-014
rhumerus -30.9722 -4.17616 -61.3408
rradius 59.4271
rwrist 15.3322
rhand -19.8972 2.78873
rfingers 7.12502
rthumb 6.43905 -27.0934
lclavicle -3.02153e-014 -6.67916e-014
lhumerus -10.2385 6.75644 61.7965
lradius 72.2784
lwrist 29.6514
lhand -15.6512 16.437
lfingers 7.12502
lthumb 10.5366 1126.15
rfemur -27.1298 7.43371 7.74456
rtibia 34.4712
rfoot -19.501 -9.39942
rtoes 10.3016
lfemur -19.1307 1.48904 -17.8295
ltibia 26.4201
lfoot 7.948 15.6344
ltoes -31.1648
